<svg xmlns="http://www.w3.org/2000/svg" viewBox="0 0 800 480" width="100%" height="100%" style="background-color: #0b0f19; font-family: system-ui, -apple-system, sans-serif;">
  <defs>
    <!-- Gradients -->
    <linearGradient id="bgGrad" x1="0%" y1="0%" x2="100%" y2="100%">
      <stop offset="0%" stop-color="#0b0f19" />
      <stop offset="50%" stop-color="#111827" />
      <stop offset="100%" stop-color="#070a13" />
    </linearGradient>
    <linearGradient id="boxGrad" x1="0%" y1="0%" x2="100%" y2="100%">
      <stop offset="0%" stop-color="#1e293b" />
      <stop offset="100%" stop-color="#0f172a" />
    </linearGradient>
    
    <!-- Arrows -->
    <marker id="arrow" viewBox="0 0 10 10" refX="6" refY="5" markerWidth="6" markerHeight="6" orient="auto-start-reverse">
      <path d="M 0 1 L 10 5 L 0 9 z" fill="#00f0ff" />
    </marker>
    <marker id="arrowAmber" viewBox="0 0 10 10" refX="6" refY="5" markerWidth="6" markerHeight="6" orient="auto-start-reverse">
      <path d="M 0 1 L 10 5 L 0 9 z" fill="#eab308" />
    </marker>
  </defs>

  <!-- Background -->
  <rect width="800" height="480" fill="url(#bgGrad)" />
  <rect width="800" height="480" fill="none" stroke="#1e293b" stroke-width="2" />

  <!-- Grid lines -->
  <path d="M 0 60 L 800 60 M 0 120 L 800 120 M 0 180 L 800 180 M 0 240 L 800 240 M 0 300 L 800 300 M 0 360 L 800 360 M 0 420 L 800 420" stroke="#1e293b" stroke-width="0.5" opacity="0.3" />
  <path d="M 100 0 L 100 480 M 200 0 L 200 480 M 300 0 L 300 480 M 400 0 L 400 480 M 500 0 L 500 480 M 600 0 L 600 480 M 700 0 L 700 480" stroke="#1e293b" stroke-width="0.5" opacity="0.3" />

  <!-- Title -->
  <text x="400" y="35" text-anchor="middle" fill="#ffffff" font-size="20" font-weight="700" letter-spacing="2">CONTEXT VM &amp; COMPACTION MECHANISMS</text>
  <text x="400" y="52" text-anchor="middle" fill="#94a3b8" font-size="11">Four-Slot VM Address Space, Prompt Cache &amp; Residency</text>

  <!-- CONTEXT VM: FOUR SLOTS (Left) -->
  <g transform="translate(30, 80)">
    <rect width="250" height="370" rx="8" fill="url(#boxGrad)" stroke="#1e293b" />
    <rect width="250" height="35" rx="8" fill="#00f0ff" opacity="0.08" />
    <text x="125" y="22" text-anchor="middle" fill="#00f0ff" font-size="12" font-weight="bold">Context VM Address Space</text>
    
    <!-- Slot 1: system_stable -->
    <g transform="translate(12, 50)">
      <rect width="226" height="50" rx="4" fill="#111827" stroke="#10b981" stroke-width="1" />
      <text x="12" y="18" fill="#10b981" font-size="10.5" font-weight="bold">Slot 1: system_stable</text>
      <text x="12" y="32" fill="#e2e8f0" font-size="9">Identity &amp; immutable system directives</text>
      <text x="12" y="42" fill="#94a3b8" font-size="8">→ Long-term prompt cache target</text>
    </g>

    <!-- Slot 2: system_knowledge -->
    <g transform="translate(12, 110)">
      <rect width="226" height="55" rx="4" fill="#111827" stroke="#10b981" stroke-width="1" />
      <text x="12" y="18" fill="#10b981" font-size="10.5" font-weight="bold">Slot 2: system_knowledge</text>
      <text x="12" y="32" fill="#e2e8f0" font-size="9">Skill bodies, initial_memory, host-pinned refs</text>
      <text x="12" y="45" fill="#94a3b8" font-size="8">→ Medium-term prompt cache target</text>
    </g>

    <!-- Slot 3: turns (History) -->
    <g transform="translate(12, 175)">
      <rect width="226" height="120" rx="4" fill="#111827" stroke="#3b82f6" stroke-width="1" />
      <text x="12" y="18" fill="#60a5fa" font-size="10.5" font-weight="bold">Slot 3: turns (Chat History)</text>
      <text x="12" y="34" fill="#e2e8f0" font-size="9">Turn 1 (User / Assistant)</text>
      <text x="12" y="47" fill="#e2e8f0" font-size="9">Turn 2 (Tool call / Observation)</text>
      <text x="12" y="60" fill="#e2e8f0" font-size="9">Turn 3 (Assistant replan)...</text>
      
      <!-- Prompt Cache line -->
      <line x1="5" y1="85" x2="221" y2="85" stroke="#10b981" stroke-width="1" stroke-dasharray="3 3" />
      <text x="12" y="98" fill="#10b981" font-size="8.5" font-weight="bold">--- Prompt Cache Boundary (Frozen Prefix) ---</text>
      <text x="12" y="110" fill="#94a3b8" font-size="8">Tail is dynamic, prefix remains byte-stable</text>
    </g>

    <!-- Slot 4: state_turn -->
    <g transform="translate(12, 305)">
      <rect width="226" height="50" rx="4" fill="#111827" stroke="#fbbf24" stroke-width="1" />
      <text x="12" y="18" fill="#fbbf24" font-size="10.5" font-weight="bold">Slot 4: state_turn (Transient)</text>
      <text x="12" y="32" fill="#e2e8f0" font-size="9">Task state, runtime signals &amp; directives</text>
      <text x="12" y="42" fill="#f87171" font-size="8" font-weight="bold">→ Recalculated every turn (No caching)</text>
    </g>
  </g>

  <!-- COMPRESSION PIPELINE (Center) -->
  <g transform="translate(310, 80)">
    <rect width="210" height="370" rx="8" fill="url(#boxGrad)" stroke="#1e293b" />
    <rect width="210" height="35" rx="8" fill="#00f0ff" opacity="0.08" />
    <text x="105" y="22" text-anchor="middle" fill="#00f0ff" font-size="12" font-weight="bold">Compaction Pipeline</text>

    <!-- Pressure Gauge -->
    <g transform="translate(15, 50)">
      <rect width="180" height="60" rx="6" fill="#111827" stroke="#334155" />
      <text x="10" y="18" fill="#ffffff" font-size="10" font-weight="bold">Token Pressure Meter</text>
      <!-- Gauge Bar -->
      <rect x="10" y="30" width="160" height="12" rx="3" fill="#1e293b" />
      <rect x="10" y="30" width="130" height="12" rx="3" fill="#f87171" />
      <line x1="120" y1="26" x2="120" y2="46" stroke="#ffffff" stroke-width="1.5" />
      <text x="122" y="25" fill="#f87171" font-size="7" font-weight="bold">Limit</text>
      <text x="10" y="52" fill="#f87171" font-size="8" font-weight="bold">Pressure > Threshold! Active Compaction</text>
    </g>

    <!-- Compression steps -->
    <g transform="translate(15, 125)">
      <text x="10" y="16" fill="#ffffff" font-size="11" font-weight="bold">Pipeline Stages</text>
      
      <!-- Stage 1: Snip -->
      <g transform="translate(10, 25)">
        <rect width="160" height="35" rx="4" fill="#111827" stroke="#fb923c" />
        <text x="10" y="16" fill="#fb923c" font-size="10" font-weight="bold">Stage 1: Snip</text>
        <text x="10" y="28" fill="#94a3b8" font-size="8.5">Truncate and prune older tool outputs</text>
      </g>
      
      <path d="M 90,190 L 90,205" stroke="#94a3b8" stroke-width="1" marker-end="url(#arrow)" />

      <!-- Stage 2: Drop -->
      <g transform="translate(10, 95)">
        <rect width="160" height="35" rx="4" fill="#111827" stroke="#fb923c" />
        <text x="10" y="16" fill="#fb923c" font-size="10" font-weight="bold">Stage 2: Drop</text>
        <text x="10" y="28" fill="#94a3b8" font-size="8.5">Evict entire older dialog turns</text>
      </g>

      <path d="M 90,260 L 90,275" stroke="#94a3b8" stroke-width="1" marker-end="url(#arrow)" />

      <!-- Stage 3: Summarize -->
      <g transform="translate(10, 165)">
        <rect width="160" height="42" rx="4" fill="#111827" stroke="#fb923c" stroke-width="1.2" />
        <text x="10" y="16" fill="#fb923c" font-size="10" font-weight="bold">Stage 3: Summarize</text>
        <text x="10" y="28" fill="#94a3b8" font-size="8">Trigger LLM summarizer to condense</text>
        <text x="10" y="37" fill="#94a3b8" font-size="8">messages into archived summary block</text>
      </g>
      
      <!-- Cache Invalidated Notification -->
      <g transform="translate(10, 222)">
        <rect width="160" height="15" rx="2" fill="#ef4444" opacity="0.15" />
        <text x="80" y="32" text-anchor="middle" fill="#f87171" font-size="8" font-weight="bold">Prefix Cache Invalidated at Compaction Point</text>
      </g>
    </g>
  </g>

  <!-- HANDLE TABLE & RESIDENCY (Right) -->
  <g transform="translate(550, 80)">
    <rect width="220" height="370" rx="8" fill="url(#boxGrad)" stroke="#1e293b" />
    <rect width="220" height="35" rx="8" fill="#00f0ff" opacity="0.08" />
    <text x="110" y="22" text-anchor="middle" fill="#00f0ff" font-size="12" font-weight="bold">Handle Table &amp; Page I/O</text>

    <!-- Handle Table representation -->
    <g transform="translate(15, 50)">
      <rect width="190" height="150" rx="6" fill="#111827" stroke="#334155" />
      <text x="10" y="18" fill="#ffffff" font-size="11" font-weight="bold">Handle Table Registry</text>
      <text x="10" y="30" fill="#94a3b8" font-size="8">Large outputs mapped to descriptors</text>

      <!-- Registry Rows -->
      <g transform="translate(10, 45)">
        <!-- Row 1 -->
        <rect width="170" height="25" rx="3" fill="#1e293b" stroke="#334155" />
        <text x="8" y="16" fill="#e2e8f0" font-size="9" font-family="monospace">H#001 (file_contents)</text>
        <rect x="120" y="4" width="45" height="16" rx="2" fill="#10b981" opacity="0.2" />
        <text x="142.5" y="15" text-anchor="middle" fill="#34d399" font-size="8" font-weight="bold">InMem</text>

        <!-- Row 2 -->
        <g transform="translate(0, 32)">
          <rect width="170" height="25" rx="3" fill="#1e293b" stroke="#334155" />
          <text x="8" y="16" fill="#e2e8f0" font-size="9" font-family="monospace">H#002 (db_query_res)</text>
          <rect x="120" y="4" width="45" height="16" rx="2" fill="#6b7280" opacity="0.2" stroke="#9ca3af" stroke-width="0.5" />
          <text x="142.5" y="15" text-anchor="middle" fill="#d1d5db" font-size="8">PagedOut</text>
        </g>
        
        <!-- Row 3 -->
        <g transform="translate(0, 64)">
          <rect width="170" height="25" rx="3" fill="#1e293b" stroke="#334155" />
          <text x="8" y="16" fill="#e2e8f0" font-size="9" font-family="monospace">H#003 (compiled_bin)</text>
          <rect x="120" y="4" width="45" height="16" rx="2" fill="#6b7280" opacity="0.2" stroke="#9ca3af" stroke-width="0.5" />
          <text x="142.5" y="15" text-anchor="middle" fill="#d1d5db" font-size="8">PagedOut</text>
        </g>
      </g>
    </g>

    <!-- Page In / Page Out flow -->
    <g transform="translate(15, 215)">
      <rect width="190" height="135" rx="6" fill="#111827" stroke="#334155" />
      <text x="10" y="20" fill="#ffffff" font-size="11" font-weight="bold">SDK Store (Disk/DB)</text>
      
      <!-- Spool / Page Flow -->
      <path d="M 40,65 L 40,35" stroke="#eab308" stroke-width="2" marker-end="url(#arrowAmber)" />
      <text x="48" y="42" fill="#eab308" font-size="8" font-weight="bold">PAGE-IN (Demand)</text>
      
      <path d="M 140,35 L 140,65" stroke="#94a3b8" stroke-width="1.5" marker-end="url(#arrow)" />
      <text x="148" y="60" fill="#94a3b8" font-size="8">PAGE-OUT (Evict)</text>
      
      <!-- Memory device -->
      <rect x="35" y="70" width="120" height="45" rx="4" fill="#1e293b" stroke="#475569" />
      <text x="95" y="90" text-anchor="middle" fill="#e2e8f0" font-size="10" font-weight="bold">DreamStore / Disk</text>
      <text x="95" y="103" text-anchor="middle" fill="#94a3b8" font-size="8.5">Stores actual handle payloads</text>
    </g>
  </g>

  <!-- Connectors -->
  <!-- Context VM -> Compression Pipeline -->
  <path d="M 280,240 L 302,240" stroke="#00f0ff" stroke-width="1.5" marker-end="url(#arrow)" />
  <!-- Compression Pipeline Summarize -> Context VM history write back -->
  <path d="M 320,335 C 290,335 290,265 264,265" fill="none" stroke="#fb923c" stroke-width="1" stroke-dasharray="2 2" marker-end="url(#arrow)" />
  
  <!-- Handle Table -> Context VM Slot referencing -->
  <path d="M 540,160 C 400,160 400,240 264,240" fill="none" stroke="#60a5fa" stroke-width="1.5" stroke-dasharray="3 3" marker-end="url(#arrow)" />
  <text x="410" y="152" fill="#60a5fa" font-size="8" font-weight="bold">Handles reside in Turns history slot</text>
</svg>
